<mxfile host="app.diagrams.net" agent="Mozilla/5.0 (Windows NT 10.0; Win64; x64) AppleWebKit/537.36 (KHTML, like Gecko) Chrome/140.0.0.0 Safari/537.36 Edg/140.0.0.0" version="28.2.5">
  <diagram name="第 1 页" id="UIN3GO888B8rErfqDr5A">
    <mxGraphModel dx="893" dy="592" grid="1" gridSize="10" guides="1" tooltips="1" connect="1" arrows="1" fold="1" page="1" pageScale="1" pageWidth="827" pageHeight="1169" math="0" shadow="0">
      <root>
        <mxCell id="0" />
        <mxCell id="1" parent="0" />
        <mxCell id="Plo0tUZFye36NhTZQ-1q-4" value="EventManager" style="text;html=1;align=center;verticalAlign=middle;whiteSpace=wrap;rounded=0;fontFamily=JetBrains Mono;fontColor=#AD378A;fontSize=16;convertToSvg=1;fontSource=https%3A%2F%2Ffonts.googleapis.com%2Fcss%3Ffamily%3DJetBrains%2BMono;" parent="1" vertex="1">
          <mxGeometry x="77" y="360" width="130" height="30" as="geometry" />
        </mxCell>
        <mxCell id="nQZqwupzUoAA6uHCbk15-1" value="EventSubscriber&amp;nbsp;" style="text;html=1;align=center;verticalAlign=middle;whiteSpace=wrap;rounded=0;fontFamily=JetBrains Mono;fontColor=#AD378A;fontSize=16;convertToSvg=1;fontSource=https%3A%2F%2Ffonts.googleapis.com%2Fcss%3Ffamily%3DJetBrains%2BMono;" vertex="1" parent="1">
          <mxGeometry x="270" y="300" width="162" height="30" as="geometry" />
        </mxCell>
        <mxCell id="nQZqwupzUoAA6uHCbk15-2" value="fd" style="text;html=1;align=center;verticalAlign=middle;whiteSpace=wrap;rounded=0;fontFamily=JetBrains Mono;fontColor=#292929;fontSize=16;convertToSvg=1;fontSource=https%3A%2F%2Ffonts.googleapis.com%2Fcss%3Ffamily%3DJetBrains%2BMono;" vertex="1" parent="1">
          <mxGeometry x="480" y="300" width="50" height="30" as="geometry" />
        </mxCell>
        <mxCell id="nQZqwupzUoAA6uHCbk15-3" value="fd" style="text;html=1;align=center;verticalAlign=middle;whiteSpace=wrap;rounded=0;fontFamily=JetBrains Mono;fontColor=#292929;fontSize=16;convertToSvg=1;fontSource=https%3A%2F%2Ffonts.googleapis.com%2Fcss%3Ffamily%3DJetBrains%2BMono;" vertex="1" parent="1">
          <mxGeometry x="480" y="340" width="50" height="30" as="geometry" />
        </mxCell>
        <mxCell id="nQZqwupzUoAA6uHCbk15-4" value="" style="endArrow=none;html=1;rounded=0;fontColor=#292929;strokeColor=#292929;strokeWidth=1.5;endFill=0;convertToSvg=1;exitX=1;exitY=0.5;exitDx=0;exitDy=0;" edge="1" parent="1" source="Plo0tUZFye36NhTZQ-1q-4">
          <mxGeometry width="50" height="50" relative="1" as="geometry">
            <mxPoint x="210" y="368" as="sourcePoint" />
            <mxPoint x="260" y="330" as="targetPoint" />
          </mxGeometry>
        </mxCell>
        <mxCell id="nQZqwupzUoAA6uHCbk15-6" value="" style="endArrow=none;html=1;rounded=0;fontColor=#292929;strokeColor=#292929;strokeWidth=1.5;endFill=0;convertToSvg=1;entryX=0;entryY=0.5;entryDx=0;entryDy=0;exitX=1;exitY=0.5;exitDx=0;exitDy=0;" edge="1" parent="1" source="nQZqwupzUoAA6uHCbk15-1" target="nQZqwupzUoAA6uHCbk15-2">
          <mxGeometry width="50" height="50" relative="1" as="geometry">
            <mxPoint x="330" y="378" as="sourcePoint" />
            <mxPoint x="380" y="340" as="targetPoint" />
          </mxGeometry>
        </mxCell>
        <mxCell id="nQZqwupzUoAA6uHCbk15-11" value="" style="endArrow=none;html=1;rounded=0;fontColor=#292929;strokeColor=#292929;strokeWidth=1.5;endFill=0;convertToSvg=1;entryX=0;entryY=0.5;entryDx=0;entryDy=0;exitX=1;exitY=0.5;exitDx=0;exitDy=0;" edge="1" parent="1" source="nQZqwupzUoAA6uHCbk15-1" target="nQZqwupzUoAA6uHCbk15-3">
          <mxGeometry width="50" height="50" relative="1" as="geometry">
            <mxPoint x="432" y="370" as="sourcePoint" />
            <mxPoint x="480" y="350" as="targetPoint" />
          </mxGeometry>
        </mxCell>
        <mxCell id="nQZqwupzUoAA6uHCbk15-13" value="fd" style="text;html=1;align=center;verticalAlign=middle;whiteSpace=wrap;rounded=0;fontFamily=JetBrains Mono;fontColor=#292929;fontSize=16;convertToSvg=1;fontSource=https%3A%2F%2Ffonts.googleapis.com%2Fcss%3Ffamily%3DJetBrains%2BMono;" vertex="1" parent="1">
          <mxGeometry x="480" y="375" width="50" height="30" as="geometry" />
        </mxCell>
        <mxCell id="nQZqwupzUoAA6uHCbk15-14" value="fd" style="text;html=1;align=center;verticalAlign=middle;whiteSpace=wrap;rounded=0;fontFamily=JetBrains Mono;fontColor=#292929;fontSize=16;convertToSvg=1;fontSource=https%3A%2F%2Ffonts.googleapis.com%2Fcss%3Ffamily%3DJetBrains%2BMono;" vertex="1" parent="1">
          <mxGeometry x="480" y="415" width="50" height="30" as="geometry" />
        </mxCell>
        <mxCell id="nQZqwupzUoAA6uHCbk15-15" value="" style="endArrow=none;html=1;rounded=0;fontColor=#292929;strokeColor=#292929;strokeWidth=1.5;endFill=0;convertToSvg=1;entryX=0;entryY=0.5;entryDx=0;entryDy=0;exitX=1;exitY=0.5;exitDx=0;exitDy=0;" edge="1" source="nQZqwupzUoAA6uHCbk15-27" target="nQZqwupzUoAA6uHCbk15-13" parent="1">
          <mxGeometry width="50" height="50" relative="1" as="geometry">
            <mxPoint x="432" y="389.9999999999999" as="sourcePoint" />
            <mxPoint x="380" y="415" as="targetPoint" />
          </mxGeometry>
        </mxCell>
        <mxCell id="nQZqwupzUoAA6uHCbk15-16" value="" style="endArrow=none;html=1;rounded=0;fontColor=#292929;strokeColor=#292929;strokeWidth=1.5;endFill=0;convertToSvg=1;entryX=0;entryY=0.5;entryDx=0;entryDy=0;exitX=1;exitY=0.5;exitDx=0;exitDy=0;" edge="1" source="nQZqwupzUoAA6uHCbk15-27" target="nQZqwupzUoAA6uHCbk15-14" parent="1">
          <mxGeometry width="50" height="50" relative="1" as="geometry">
            <mxPoint x="432" y="389.9999999999999" as="sourcePoint" />
            <mxPoint x="480" y="425" as="targetPoint" />
          </mxGeometry>
        </mxCell>
        <mxCell id="nQZqwupzUoAA6uHCbk15-17" value="" style="endArrow=none;html=1;rounded=0;fontColor=#292929;strokeColor=#292929;strokeWidth=1.5;endFill=0;convertToSvg=1;exitX=1;exitY=0.5;exitDx=0;exitDy=0;" edge="1" parent="1" source="Plo0tUZFye36NhTZQ-1q-4">
          <mxGeometry width="50" height="50" relative="1" as="geometry">
            <mxPoint x="210" y="380" as="sourcePoint" />
            <mxPoint x="260" y="390" as="targetPoint" />
          </mxGeometry>
        </mxCell>
        <mxCell id="nQZqwupzUoAA6uHCbk15-21" value="fd" style="text;html=1;align=center;verticalAlign=middle;whiteSpace=wrap;rounded=0;fontFamily=JetBrains Mono;fontColor=#292929;fontSize=16;convertToSvg=1;fontSource=https%3A%2F%2Ffonts.googleapis.com%2Fcss%3Ffamily%3DJetBrains%2BMono;" vertex="1" parent="1">
          <mxGeometry x="480" y="457" width="50" height="30" as="geometry" />
        </mxCell>
        <mxCell id="nQZqwupzUoAA6uHCbk15-22" value="" style="endArrow=none;html=1;rounded=0;fontColor=#292929;strokeColor=#292929;strokeWidth=1.5;endFill=0;convertToSvg=1;entryX=0;entryY=0.5;entryDx=0;entryDy=0;exitX=1;exitY=0.5;exitDx=0;exitDy=0;" edge="1" parent="1" source="nQZqwupzUoAA6uHCbk15-27" target="nQZqwupzUoAA6uHCbk15-21">
          <mxGeometry width="50" height="50" relative="1" as="geometry">
            <mxPoint x="432" y="389.9999999999999" as="sourcePoint" />
            <mxPoint x="498" y="410" as="targetPoint" />
          </mxGeometry>
        </mxCell>
        <mxCell id="nQZqwupzUoAA6uHCbk15-23" value="" style="endArrow=none;html=1;rounded=0;fontColor=#292929;strokeColor=#292929;strokeWidth=1.5;endFill=0;convertToSvg=1;exitX=1;exitY=0.5;exitDx=0;exitDy=0;" edge="1" parent="1" source="Plo0tUZFye36NhTZQ-1q-4">
          <mxGeometry width="50" height="50" relative="1" as="geometry">
            <mxPoint x="250" y="380" as="sourcePoint" />
            <mxPoint x="260" y="440" as="targetPoint" />
          </mxGeometry>
        </mxCell>
        <mxCell id="nQZqwupzUoAA6uHCbk15-24" value="..." style="text;html=1;align=center;verticalAlign=middle;whiteSpace=wrap;rounded=0;fontFamily=JetBrains Mono;fontColor=#292929;fontSize=16;convertToSvg=1;fontSource=https%3A%2F%2Ffonts.googleapis.com%2Fcss%3Ffamily%3DJetBrains%2BMono;" vertex="1" parent="1">
          <mxGeometry x="270" y="430" width="40" height="30" as="geometry" />
        </mxCell>
        <mxCell id="nQZqwupzUoAA6uHCbk15-25" value="&lt;font style=&quot;font-size: 12px;&quot;&gt;with subscriber id&lt;/font&gt;" style="text;html=1;align=right;verticalAlign=middle;whiteSpace=wrap;rounded=0;fontSize=14;fontColor=#292929;fontFamily=Nunito;fontStyle=0;convertToSvg=1;fontSource=https%3A%2F%2Ffonts.googleapis.com%2Fcss%3Ffamily%3DNunito;" vertex="1" parent="1">
          <mxGeometry x="310" y="321" width="109" height="30" as="geometry" />
        </mxCell>
        <mxCell id="nQZqwupzUoAA6uHCbk15-26" value="&lt;font style=&quot;font-size: 12px;&quot;&gt;with subscriber id&lt;/font&gt;" style="text;html=1;align=right;verticalAlign=middle;whiteSpace=wrap;rounded=0;fontSize=14;fontColor=#292929;fontFamily=Nunito;fontStyle=0;convertToSvg=1;fontSource=https%3A%2F%2Ffonts.googleapis.com%2Fcss%3Ffamily%3DNunito;" vertex="1" parent="1">
          <mxGeometry x="310" y="396" width="109" height="30" as="geometry" />
        </mxCell>
        <mxCell id="nQZqwupzUoAA6uHCbk15-27" value="EventSubscriber&amp;nbsp;" style="text;html=1;align=center;verticalAlign=middle;whiteSpace=wrap;rounded=0;fontFamily=JetBrains Mono;fontColor=#AD378A;fontSize=16;convertToSvg=1;fontSource=https%3A%2F%2Ffonts.googleapis.com%2Fcss%3Ffamily%3DJetBrains%2BMono;" vertex="1" parent="1">
          <mxGeometry x="270" y="375" width="162" height="30" as="geometry" />
        </mxCell>
        <mxCell id="nQZqwupzUoAA6uHCbk15-28" value="&lt;font style=&quot;font-size: 12px;&quot;&gt;HashMap&lt;/font&gt;" style="text;html=1;align=center;verticalAlign=middle;whiteSpace=wrap;rounded=0;fontSize=14;fontColor=#292929;fontFamily=Nunito;fontStyle=0;convertToSvg=1;fontSource=https%3A%2F%2Ffonts.googleapis.com%2Fcss%3Ffamily%3DNunito;" vertex="1" parent="1">
          <mxGeometry x="180" y="220" width="109" height="30" as="geometry" />
        </mxCell>
        <mxCell id="nQZqwupzUoAA6uHCbk15-30" value="" style="endArrow=none;html=1;rounded=0;fontColor=#292929;strokeColor=#999999;strokeWidth=1.5;endFill=0;convertToSvg=1;dashed=1;entryX=0.5;entryY=1;entryDx=0;entryDy=0;startArrow=open;startFill=0;" edge="1" parent="1" target="nQZqwupzUoAA6uHCbk15-28">
          <mxGeometry width="50" height="50" relative="1" as="geometry">
            <mxPoint x="235" y="340" as="sourcePoint" />
            <mxPoint x="253" y="285" as="targetPoint" />
          </mxGeometry>
        </mxCell>
        <mxCell id="nQZqwupzUoAA6uHCbk15-33" value="" style="endArrow=none;html=1;rounded=0;fontColor=#292929;strokeColor=#999999;strokeWidth=1.5;endFill=0;convertToSvg=1;dashed=1;entryX=0.5;entryY=1;entryDx=0;entryDy=0;startArrow=open;startFill=0;" edge="1" target="nQZqwupzUoAA6uHCbk15-34" parent="1">
          <mxGeometry width="50" height="50" relative="1" as="geometry">
            <mxPoint x="455" y="310" as="sourcePoint" />
            <mxPoint x="473" y="285" as="targetPoint" />
          </mxGeometry>
        </mxCell>
        <mxCell id="nQZqwupzUoAA6uHCbk15-34" value="&lt;font style=&quot;font-size: 12px;&quot;&gt;3× HashMap&lt;/font&gt;" style="text;html=1;align=center;verticalAlign=middle;whiteSpace=wrap;rounded=0;fontSize=14;fontColor=#292929;fontFamily=Nunito;fontStyle=0;convertToSvg=1;fontSource=https%3A%2F%2Ffonts.googleapis.com%2Fcss%3Ffamily%3DNunito;" vertex="1" parent="1">
          <mxGeometry x="400" y="220" width="109" height="30" as="geometry" />
        </mxCell>
        <mxCell id="nQZqwupzUoAA6uHCbk15-35" value="&lt;div&gt;&lt;font&gt;id → fd&lt;/font&gt;&lt;/div&gt;&lt;div&gt;&lt;font&gt;fd → id&lt;/font&gt;&lt;/div&gt;&lt;div&gt;&lt;font&gt;fd → OwnedFd (In Subscriber)&lt;/font&gt;&lt;/div&gt;" style="text;html=1;align=left;verticalAlign=middle;whiteSpace=wrap;rounded=0;fontSize=12;fontColor=#999999;fontFamily=Nunito;fontStyle=0;convertToSvg=1;fontSource=https%3A%2F%2Ffonts.googleapis.com%2Fcss%3Ffamily%3DNunito;" vertex="1" parent="1">
          <mxGeometry x="465" y="243" width="200" height="50" as="geometry" />
        </mxCell>
      </root>
    </mxGraphModel>
  </diagram>
</mxfile>
